<?xml version="1.0" encoding="UTF-8" standalone="no"?>
<svg
   xmlns:dc="http://purl.org/dc/elements/1.1/"
   xmlns:cc="http://creativecommons.org/ns#"
   xmlns:rdf="http://www.w3.org/1999/02/22-rdf-syntax-ns#"
   xmlns:svg="http://www.w3.org/2000/svg"
   xmlns="http://www.w3.org/2000/svg"
   xmlns:sodipodi="http://sodipodi.sourceforge.net/DTD/sodipodi-0.dtd"
   xmlns:inkscape="http://www.inkscape.org/namespaces/inkscape"
   inkscape:version="0.92.5 (2060ec1f9f, 2020-04-08)"
   sodipodi:docname="edit.svg"
   viewBox="0 0 480 480"
   height="480"
   width="480"
   id="svg885"
   version="1.1">
  <metadata
     id="metadata891">
    <rdf:RDF>
      <cc:Work
         rdf:about="">
        <dc:format>image/svg+xml</dc:format>
        <dc:type
           rdf:resource="http://purl.org/dc/dcmitype/StillImage" />
        <dc:title />
      </cc:Work>
    </rdf:RDF>
  </metadata>
  <defs
     id="defs889" />
  <sodipodi:namedview
     inkscape:current-layer="g1524"
     inkscape:window-maximized="1"
     inkscape:window-y="0"
     inkscape:window-x="0"
     inkscape:cy="240"
     inkscape:cx="170.23256"
     inkscape:zoom="0.89583333"
     showgrid="false"
     id="namedview887"
     inkscape:window-height="692"
     inkscape:window-width="1366"
     inkscape:pageshadow="2"
     inkscape:pageopacity="0"
     guidetolerance="10"
     gridtolerance="10"
     objecttolerance="10"
     borderopacity="1"
     bordercolor="#666666"
     pagecolor="#ffffff" />
  <g
     id="g893"
     inkscape:label="Image"
     inkscape:groupmode="layer">
    <g
       id="g1524">
      <path
         id="path1532"
         d="m 221.12131,416.68531 -41.10805,-61.81041 0.0276,-10.36383 0.0276,-10.36383 27.20779,41.10984 27.20777,41.10985 h 28.43625 28.43625 l 27.20777,-41.10985 27.2078,-41.10984 0.0276,10.36383 0.0276,10.36383 -41.10805,61.81041 c -22.60943,33.99572 -41.41894,61.8104 -41.79896,61.8104 -0.38,0 -19.18953,-27.81468 -41.79896,-61.8104 z m -40.78366,-239.13307 0.36294,-155.904084 3.81187,-5.759771 c 2.09652,-3.167877 6.40392,-7.4751167 9.57199,-9.5716439 l 5.76011,-3.8118665 h 63.0757 63.0757 l 5.76012,3.8118665 c 3.16807,2.0965272 7.47547,6.4037669 9.57198,9.5716439 l 3.81188,5.759771 0.36293,155.904084 0.36296,155.90409 H 335.79755 325.7293 L 315.05242,322.71647 304.37556,311.97661 V 198.35058 84.724543 h -41.4553 -41.45529 V 198.41357 312.10259 l -10.73984,10.67686 -10.73988,10.67688 h -10.00527 -10.00529 z"
         style="fill:#354f52;fill-opacity:1;stroke-width:0.99999994"
         inkscape:connector-curvature="0" />
      <path
         id="path1530"
         d="m 247.94796,437.09456 -14.15249,-20.72763 h 29.12479 29.1248 l -14.15249,20.72763 c -7.78387,11.40021 -14.5214,20.72765 -14.97231,20.72765 -0.45089,0 -7.18842,-9.32744 -14.9723,-20.72765 z M 180.00967,57.307297 c 0,-31.856751 1.20138,-37.852389 9.23278,-46.077292 8.86089,-9.0743606 11.52141,-9.4160529 73.31672,-9.4160529 35.48288,0 56.54271,0.5367687 60.53882,1.5430023 3.60179,0.9069442 8.68545,3.794318 12.33231,7.0044186 9.1952,8.093924 10.40056,13.53829 10.40056,46.977112 v 27.386058 h -82.9106 -82.91059 z"
         style="fill:#2f3e46;fill-opacity:1;stroke-width:0.99999994"
         inkscape:connector-curvature="0" />
      <path
         id="path1528"
         d="m 248.71547,436.76581 -13.41366,-19.70797 13.80923,-0.3938 c 7.59508,-0.21659 20.02904,-0.21659 27.63104,0 l 13.82181,0.3938 -13.19514,19.3458 c -7.25734,10.64019 -13.65518,19.50878 -14.21741,19.70797 -0.56222,0.1992 -7.05838,-8.50641 -14.43587,-19.3458 z"
         style="fill:#767676;fill-opacity:1;stroke-width:0.99999994"
         inkscape:connector-curvature="0" />
      <path
         id="path1526"
         d="m 249.73068,436.91208 c -6.80598,-10.00329 -12.5818,-18.71823 -12.83512,-19.36649 -0.25336,-0.64826 11.40594,-1.17866 25.90955,-1.17866 14.5036,0 26.37018,0.31238 26.37018,0.69416 0,1.18401 -24.95761,37.28475 -26.04433,37.67266 -0.56416,0.20139 -6.59429,-7.81837 -13.40028,-17.82167 z"
         style="fill:#2f3e46;fill-opacity:1;stroke-width:0.99999994"
         inkscape:connector-curvature="0" />
    </g>
  </g>
</svg>
