<?xml version="1.0" encoding="UTF-8" standalone="no"?>
<!-- Created with Inkscape (http://www.inkscape.org/) -->

<svg
   width="48"
   height="48"
   viewBox="0 0 48 48"
   version="1.1"
   id="svg5"
   inkscape:version="1.1.1 (3bf5ae0d25, 2021-09-20)"
   sodipodi:docname="gitlab.svg"
   xmlns:inkscape="http://www.inkscape.org/namespaces/inkscape"
   xmlns:sodipodi="http://sodipodi.sourceforge.net/DTD/sodipodi-0.dtd"
   xmlns="http://www.w3.org/2000/svg"
   xmlns:svg="http://www.w3.org/2000/svg">
  <sodipodi:namedview
     id="namedview7"
     pagecolor="#505050"
     bordercolor="#ffffff"
     borderopacity="1"
     inkscape:pageshadow="0"
     inkscape:pageopacity="0"
     inkscape:pagecheckerboard="1"
     inkscape:document-units="px"
     showgrid="false"
     showguides="true"
     inkscape:guide-bbox="true"
     inkscape:zoom="4"
     inkscape:cx="43.875"
     inkscape:cy="50.875"
     inkscape:window-width="1366"
     inkscape:window-height="697"
     inkscape:window-x="-8"
     inkscape:window-y="-8"
     inkscape:window-maximized="1"
     inkscape:current-layer="layer1" />
  <defs
     id="defs2" />
  <g
     inkscape:label="Layer 1"
     inkscape:groupmode="layer"
     id="layer1">
    <g
       id="g1609"
       transform="matrix(2.1023658,0,0,2.1023658,-27.044866,-21.500829)"
       style="stroke-width:0.475654">
      <path
         style="fill:#cad2c5;fill-opacity:1;stroke-width:0.475654"
         d="m 24.15633,32.781348 c -0.01368,-0.03566 -0.194019,-0.179116 -0.400745,-0.318793 -0.206725,-0.139676 -0.580864,-0.4061 -0.83142,-0.592052 C 22.338699,31.435992 22.149562,31.298079 21.697444,30.976009 21.493812,30.83095 21.055336,30.513516 20.723053,30.2706 20.39077,30.027684 20.025194,29.761152 19.91066,29.678306 19.332515,29.260114 17.513295,27.939354 17.049897,27.601381 16.75978,27.389789 16.274254,27.036883 15.97095,26.817147 15.667645,26.597411 15.246856,26.292183 15.035862,26.138862 14.824868,25.985542 14.371165,25.6571 14.027634,25.40899 13.22343,24.828166 13.187436,24.798682 13.032352,24.593705 c -0.108017,-0.142767 -0.130408,-0.221399 -0.130408,-0.457953 0,-0.157075 0.02026,-0.30609 0.04503,-0.331146 0.02476,-0.02505 0.232044,-0.617397 0.460622,-1.316315 0.228578,-0.698919 0.497658,-1.518918 0.597955,-1.822222 0.352079,-0.555616 0.335019,-0.77924 0.305515,-0.657228 0.01529,0.05817 0.227785,0.35592 0.472208,0.661664 0.244422,0.305745 0.563089,0.710458 0.708147,0.899364 0.145059,0.188905 0.49857,0.640067 0.785581,1.00258 0.866134,1.093986 1.626207,2.067992 1.803893,2.311622 0.09231,0.126569 0.545468,0.709546 1.007017,1.295505 0.46155,0.585958 0.893129,1.136531 0.959064,1.223495 0.23043,0.303921 0.592088,0.769803 0.800676,1.031418 0.387073,0.485476 1.422865,1.805828 2.05254,2.616428 0.342866,0.441381 0.790482,1.009697 0.994704,1.262924 0.204221,0.253228 0.371458,0.476597 0.371637,0.496378 5.56e-4,0.06155 -0.084,0.03939 -0.110199,-0.02887 z m 0.159768,0.01406 c 7.1e-4,-0.03801 0.06633,-0.144633 0.145823,-0.236943 0.07949,-0.09231 0.260708,-0.318889 0.4027,-0.503509 0.141992,-0.18462 0.373083,-0.478403 0.513534,-0.652852 0.140451,-0.174448 0.341682,-0.429873 0.447179,-0.56761 0.105497,-0.137737 0.288918,-0.375254 0.407603,-0.527815 0.118684,-0.152561 0.571842,-0.736115 1.007017,-1.296786 0.435175,-0.560671 1.060965,-1.359341 1.390643,-1.774821 0.329679,-0.41548 0.7181,-0.911887 0.863158,-1.103128 0.145058,-0.19124 0.371637,-0.479691 0.503509,-0.641003 0.131871,-0.161311 0.304503,-0.378368 0.383625,-0.482348 0.469243,-0.616658 1.522192,-1.973223 2.341483,-3.016647 0.127348,-0.162186 0.299979,-0.384092 0.383625,-0.493125 0.08365,-0.109033 0.373269,-0.480019 0.643605,-0.824414 0.35217,-0.448647 0.492056,-0.664348 0.493407,-0.760823 0.002,-0.143327 0.143242,0.261567 0.864653,2.4788 0.244567,0.751667 0.46254,1.37386 0.484385,1.382651 0.05509,0.02217 0.05024,0.72729 -0.005,0.72729 -0.0246,0 -0.05807,0.04206 -0.07438,0.09346 -0.03122,0.09836 -0.358207,0.367494 -1.024668,0.843375 -0.220274,0.157286 -0.468432,0.334468 -0.551462,0.393739 -0.362787,0.258977 -0.474646,0.339814 -0.846215,0.611533 -0.860493,0.62926 -2.189522,1.591627 -2.615822,1.894152 -0.362775,0.257444 -0.978976,0.707804 -1.603832,1.172187 -0.250392,0.186086 -0.53585,0.392287 -0.634351,0.458222 -0.216248,0.144755 -1.968991,1.418452 -2.339046,1.699757 -0.145058,0.110269 -0.533479,0.391176 -0.863158,0.624239 -0.329678,0.233062 -0.626388,0.457 -0.659356,0.497638 -0.04989,0.0615 -0.05973,0.0623 -0.05865,0.0048 z m 4.226026,-13.088404 c -10.452072,-6.320024 -5.226036,-3.160012 0,0 z"
         id="path1615"
         sodipodi:nodetypes="sssssssssssscsccsssssssssssscssssssssscssscssscssssssssscccc" />
      <path
         style="fill:#84a98c;fill-opacity:1;stroke-width:0.475654"
         d="m 24.234053,32.756718 c -0.03061,-0.04901 -0.278512,-0.368487 -0.550898,-0.709949 -0.272386,-0.341462 -0.700247,-0.885762 -0.950803,-1.209556 -0.459505,-0.593822 -1.496051,-1.915267 -1.884704,-2.402724 -0.208588,-0.261615 -0.570246,-0.727497 -0.800676,-1.031418 -0.06593,-0.08696 -0.497514,-0.63737 -0.959064,-1.223124 -0.461549,-0.585753 -0.903918,-1.155668 -0.983041,-1.266476 -0.07912,-0.110808 -0.221082,-0.2972 -0.315466,-0.414203 -0.357779,-0.443523 -1.942523,-2.458638 -2.034241,-2.586683 -0.05275,-0.07364 -0.311696,-0.408315 -0.575438,-0.743722 -0.883721,-1.123842 -0.887376,-1.129076 -0.881572,-1.262271 0.0035,-0.08121 0.01354,-0.09712 0.02749,-0.04374 0.02057,0.07872 0.196621,0.08392 2.843657,0.08392 4.721874,0.07387 9.634319,-0.03715 14.014783,0 1.483563,0.01319 2.778309,0.01069 2.877212,-0.0055 0.137417,-0.02256 0.179825,-0.01343 0.179825,0.03874 0,0.03755 -0.221184,0.350046 -0.491521,0.694442 -0.270336,0.344395 -0.559958,0.715381 -0.643605,0.824414 -0.08365,0.109033 -0.256277,0.330939 -0.383625,0.493125 -0.819291,1.043424 -1.87224,2.399989 -2.341483,3.016647 -0.07912,0.10398 -0.251754,0.321037 -0.383625,0.482348 -0.131872,0.161312 -0.358451,0.449763 -0.503509,0.641003 -0.145058,0.191241 -0.533479,0.687656 -0.863158,1.103147 -0.664707,0.837723 -1.967073,2.503754 -2.301754,2.944481 -0.118684,0.156291 -0.269737,0.353477 -0.335672,0.438193 -0.06594,0.08472 -0.242337,0.313266 -0.392003,0.50789 -0.259857,0.337918 -0.541784,0.6926 -1.036652,1.304175 -0.124152,0.153432 -0.236775,0.309799 -0.250273,0.347482 -0.01954,0.05456 -0.03588,0.05036 -0.08019,-0.02059 z m 0.421543,-1.160409 c 0.177232,-0.538972 0.584192,-1.78916 0.904356,-2.778195 0.320165,-0.989035 0.622996,-1.916929 0.67296,-2.061988 0.04996,-0.145058 0.277967,-0.846374 0.506674,-1.558479 0.228708,-0.712105 0.498307,-1.542895 0.599109,-1.846199 0.345253,-1.038837 1.052136,-3.238128 1.052136,-3.273461 0,-0.01942 -1.855789,-0.03531 -4.123976,-0.03531 -2.268187,0 -4.123976,0.01173 -4.123976,0.02607 0,0.01434 0.181902,0.580785 0.404226,1.258772 0.222324,0.677987 0.665955,2.041915 0.985847,3.03095 0.319891,0.989035 0.622336,1.916929 0.672098,2.061988 0.07978,0.232567 0.45977,1.402107 1.565808,4.819297 0.416347,1.286338 0.449448,1.374191 0.510143,1.353959 0.02879,-0.0096 0.197363,-0.458429 0.374595,-0.997401 z"
         id="path1613"
         sodipodi:nodetypes="cssssssssccccccsssssssssssssccsssssssssssssss" />
      <path
         style="fill:#2f3e46;fill-opacity:1;stroke-width:0.475654"
         d="m 24.154961,32.404989 c -0.04053,-0.113395 -0.213373,-0.637752 -0.384103,-1.165238 -1.106038,-3.41719 -1.486026,-4.58673 -1.565808,-4.819297 -0.04976,-0.145059 -0.352207,-1.072953 -0.672098,-2.061988 -0.319892,-0.989035 -0.763523,-2.352963 -0.985847,-3.03095 -0.222324,-0.677987 -0.519842,-1.33903 -0.519842,-1.353367 0,-0.01434 2.030862,-0.03553 4.299049,-0.03553 2.268187,0 4.206412,-0.0167 4.206412,0.0027 0,0.03533 -0.848776,2.371262 -1.194029,3.410099 -0.100802,0.303304 -0.370401,1.134094 -0.599109,1.846199 -0.228707,0.712105 -0.456711,1.413421 -0.506674,1.558479 -0.04996,0.145059 -0.352795,1.072953 -0.67296,2.061988 -1.022523,3.158726 -1.22544,3.75776 -1.278951,3.775596 -0.02879,0.0096 -0.08551,-0.07533 -0.12604,-0.188721 z m 7.002067,-12.446641 -2.628539,-0.0124 0.03271,-0.107483 c 0.01799,-0.05912 0.233297,-0.722484 0.478454,-1.474151 0.245157,-0.751666 0.740226,-2.272982 1.100152,-3.380701 0.359927,-1.107719 0.714128,-2.197456 0.787115,-2.421637 0.1065,-0.327117 0.162369,-0.427708 0.282935,-0.509424 0.08263,-0.056 0.13671,-0.115345 0.120183,-0.131872 -0.01653,-0.01653 -0.01027,-0.02973 0.01391,-0.02934 0.02418,3.93e-4 0.123064,0.07052 0.21975,0.155848 0.140832,0.124282 0.201015,0.236199 0.302614,0.562737 0.145326,0.467081 1.028058,3.185875 1.821613,5.610526 0.297802,0.909912 0.527915,1.667811 0.511362,1.684219 -0.05948,0.05896 -0.452263,0.06589 -3.042261,0.05367 z M 14.34057,19.886829 c 1.7e-5,-0.03297 0.07669,-0.29731 0.170382,-0.587427 0.479914,-1.486022 1.336388,-4.113804 1.811881,-5.559099 l 0.535251,-1.626935 0.191813,-0.117887 c 0.105497,-0.06484 0.176492,-0.101432 0.157767,-0.08132 1.063861,2.115666 0.188798,-0.04356 1.121441,2.829686 0.342512,1.054971 0.858361,2.640234 1.146332,3.522807 0.28797,0.882574 0.555114,1.684716 0.555114,1.705461 0,0.02075 -1.30469,-0.02534 -2.860771,-0.02534 -2.231439,0 -2.829233,-0.01267 -2.82921,-0.05994 z"
         id="path1611"
         sodipodi:nodetypes="scsssssssssssssccssssssscsssccscsccccsssss" />
    </g>
  </g>
</svg>
