<?xml version="1.0" encoding="UTF-8" standalone="no"?>
<svg
   xmlns:dc="http://purl.org/dc/elements/1.1/"
   xmlns:cc="http://creativecommons.org/ns#"
   xmlns:rdf="http://www.w3.org/1999/02/22-rdf-syntax-ns#"
   xmlns:svg="http://www.w3.org/2000/svg"
   xmlns="http://www.w3.org/2000/svg"
   xmlns:sodipodi="http://sodipodi.sourceforge.net/DTD/sodipodi-0.dtd"
   xmlns:inkscape="http://www.inkscape.org/namespaces/inkscape"
   height="512pt"
   viewBox="0 -5 512 511"
   width="512pt"
   version="1.1"
   id="svg3839"
   sodipodi:docname="offline.svg"
   inkscape:version="1.0.1 (3bc2e813f5, 2020-09-07)">
  <metadata
     id="metadata3845">
    <rdf:RDF>
      <cc:Work
         rdf:about="">
        <dc:format>image/svg+xml</dc:format>
        <dc:type
           rdf:resource="http://purl.org/dc/dcmitype/StillImage" />
        <dc:title />
      </cc:Work>
    </rdf:RDF>
  </metadata>
  <defs
     id="defs3843" />
  <sodipodi:namedview
     pagecolor="#ffffff"
     bordercolor="#666666"
     borderopacity="1"
     objecttolerance="10"
     gridtolerance="10"
     guidetolerance="10"
     inkscape:pageopacity="0"
     inkscape:pageshadow="2"
     inkscape:window-width="1366"
     inkscape:window-height="705"
     id="namedview3841"
     showgrid="false"
     inkscape:zoom="0.74121094"
     inkscape:cx="248.91699"
     inkscape:cy="341.33333"
     inkscape:window-x="-8"
     inkscape:window-y="-8"
     inkscape:window-maximized="1"
     inkscape:current-layer="svg3839"
     inkscape:document-rotation="0" />
  <path
     d="m244.496094 57.761719c3.546875 1.488281 7.441406 2.3125 11.527344 2.3125 3.933593 0 7.683593-.769531 11.121093-2.15625l64.613281 111.917969h17.320313l-69.8125-120.929688c4.089844-5.097656 6.542969-11.570312 6.542969-18.621094 0-16.449218-13.335938-29.785156-29.785156-29.785156-16.453126 0-29.789063 13.335938-29.789063 29.785156 0 6.886719 2.339844 13.21875 6.261719 18.261719l-70.023438 121.289063h17.320313zm0 0"
     fill="#6843af"
     id="path3801"
     style="fill:#354f52;fill-opacity:1" />
  <path
     d="m285.808594 30.285156c0 16.453125-13.335938 29.789063-29.785156 29.789063-16.453126 0-29.789063-13.335938-29.789063-29.789063 0-16.449218 13.335937-29.785156 29.789063-29.785156 16.449218 0 29.785156 13.335938 29.785156 29.785156zm0 0"
     fill="#71a2ea"
     id="path3803"
     style="fill:#354f52;fill-opacity:1" />
  <path
     d="m244.808594 30.285156c0-13.207031 8.597656-24.398437 20.5-28.300781-2.921875-.957031-6.042969-1.484375-9.285156-1.484375-16.453126 0-29.789063 13.335938-29.789063 29.785156 0 16.453125 13.335937 29.789063 29.789063 29.789063 3.242187 0 6.363281-.527344 9.285156-1.484375-11.902344-3.902344-20.5-15.097656-20.5-28.304688zm0 0"
     fill="#578dce"
     id="path3805"
     style="fill:#141d1f;fill-opacity:1" />
  <path
     d="m200.71875 133.585938h-17.320312l-20.925782 36.25h17.320313zm0 0"
     fill="#50309e"
     id="path3807"
     style="fill:#354f52;fill-opacity:1" />
  <path
     d="m328.152344 133.585938h-17.320313l20.929688 36.25h17.316406zm0 0"
     fill="#50309e"
     id="path3809"
     style="fill:#354f52;fill-opacity:1" />
  <path
     d="m497 354.371094h-482c-8.285156 0-15-6.71875-15-15v-165.742188c0-8.28125 6.714844-15 15-15h482c8.285156 0 15 6.71875 15 15v165.742188c0 8.28125-6.714844 15-15 15zm0 0"
     fill="#ef3a50"
     id="path3811" />
  <path
     d="m497 354.371094h-482c-8.285156 0-15-6.71875-15-15v-165.742188c0-8.28125 6.714844-15 15-15h482c8.285156 0 15 6.71875 15 15v165.742188c0 8.28125-6.714844 15-15 15zm0 0"
     fill="#fdd33a"
     id="path3813"
     style="fill:#354f52;fill-opacity:1" />
  <path
     d="m497 339.613281h-420.207031c-8.28125 0-14.996094-6.710937-15-14.996093-.003907-40.835938-.011719-150.984376-.011719-150.984376 0-8.285156 6.71875-15 15-15h-61.78125c-8.285156 0-15 6.714844-15 15v165.738282c0 8.28125 6.714844 15 15 15h482c8.285156 0 15-6.71875 15-15v-14.757813c0 8.28125-6.714844 15-15 15zm0 0"
     fill="#e0af24"
     id="path3815"
     style="fill:#141d1f;fill-opacity:1" />
  <g
     fill="#fff"
     id="g3831">
    <path
       d="m95 289.230469c-5.121094-5.078125-7.683594-11.222657-7.683594-18.429688v-38.34375c0-7.167969 2.5625-13.3125 7.683594-18.433593 5.078125-5.078126 11.222656-7.617188 18.433594-7.617188 7.207031 0 13.351562 2.539062 18.433594 7.617188 5.117187 5.121093 7.679687 11.265624 7.679687 18.433593v38.34375c0 7.210938-2.5625 13.351563-7.679687 18.433594-5.082032 5.121094-11.226563 7.679687-18.433594 7.679687-7.210938 0-13.355469-2.5625-18.433594-7.683593zm8.109375-67.09375c-2.867187 2.867187-4.300781 6.308593-4.300781 10.324219v38.339843c0 4.015625 1.433594 7.457031 4.300781 10.320313 2.828125 2.867187 6.269531 4.300781 10.320313 4.300781 4.015624 0 7.457031-1.433594 10.324218-4.300781 2.867188-2.863282 4.300782-6.308594 4.300782-10.320313v-38.339843c0-4.015626-1.433594-7.457032-4.300782-10.324219-2.867187-2.824219-6.308594-4.238281-10.324218-4.238281-4.050782 0-7.492188 1.410156-10.320313 4.238281zm0 0"
       id="path3817"
       style="fill:#e1e9e6;fill-opacity:1" />
    <path
       d="m162.710938 220.046875v23.839844h20.890624c1.597657 0 2.96875.554687 4.117188 1.660156 1.105469 1.105469 1.65625 2.457031 1.65625 4.054687 0 1.597657-.550781 2.949219-1.65625 4.054688-1.148438 1.148438-2.523438 1.722656-4.117188 1.722656h-20.890624v35.761719c0 1.597656-.554688 2.96875-1.660157 4.113281-1.148437 1.105469-2.5 1.660156-4.054687 1.660156-1.597656 0-2.972656-.554687-4.117188-1.660156-1.105468-1.144531-1.660156-2.519531-1.660156-4.113281v-76.867187c0-1.554688.554688-2.90625 1.660156-4.054688 1.144532-1.105469 2.519532-1.660156 4.117188-1.660156h30.289062c1.601563 0 2.949219.554687 4.058594 1.660156 1.144531 1.144531 1.71875 2.5 1.71875 4.054688 0 1.597656-.574219 2.949218-1.71875 4.054687-1.105469 1.148437-2.457031 1.722656-4.058594 1.722656h-24.574218zm0 0"
       id="path3819"
       style="fill:#e1e9e6;fill-opacity:1" />
    <path
       d="m214.382812 220.046875v23.839844h20.890626c1.597656 0 2.96875.554687 4.117187 1.660156 1.105469 1.105469 1.660156 2.457031 1.660156 4.054687 0 1.597657-.554687 2.949219-1.660156 4.054688-1.148437 1.148438-2.519531 1.722656-4.117187 1.722656h-20.890626v35.761719c0 1.597656-.554687 2.96875-1.65625 4.113281-1.148437 1.105469-2.5 1.660156-4.058593 1.660156-1.597657 0-2.96875-.554687-4.113281-1.660156-1.109376-1.144531-1.660157-2.519531-1.660157-4.113281v-76.867187c0-1.554688.550781-2.90625 1.660157-4.054688 1.144531-1.105469 2.515624-1.660156 4.113281-1.660156h30.292969c1.597656 0 2.949218.554687 4.054687 1.660156 1.144531 1.144531 1.722656 2.5 1.722656 4.054688 0 1.597656-.574219 2.949218-1.722656 4.054687-1.105469 1.148437-2.457031 1.722656-4.054687 1.722656h-24.578126zm0 0"
       id="path3821"
       style="fill:#e1e9e6;fill-opacity:1" />
    <path
       d="m293.523438 285.421875c1.597656 0 2.949218.554687 4.054687 1.660156 1.144531 1.148438 1.71875 2.5 1.71875 4.054688 0 1.597656-.574219 2.972656-1.71875 4.117187-1.105469 1.105469-2.457031 1.660156-4.054687 1.660156h-33.179688c-1.601562 0-2.972656-.554687-4.117188-1.660156-1.105468-1.144531-1.660156-2.519531-1.660156-4.117187v-77.910157c0-1.597656.554688-2.949218 1.660156-4.054687 1.144532-1.144531 2.519532-1.71875 4.117188-1.71875 1.554688 0 2.90625.574219 4.054688 1.71875 1.105468 1.105469 1.660156 2.457031 1.660156 4.054687v72.195313zm0 0"
       id="path3823"
       style="fill:#e1e9e6;fill-opacity:1" />
    <path
       d="m310.789062 295.253906c-1.105468-1.144531-1.660156-2.519531-1.660156-4.117187v-79.015625c0-1.597656.554688-2.949219 1.660156-4.054688 1.144532-1.105468 2.519532-1.660156 4.113282-1.660156 1.558594 0 2.910156.554688 4.058594 1.660156 1.105468 1.105469 1.65625 2.457032 1.65625 4.054688v79.015625c0 1.597656-.550782 2.972656-1.65625 4.117187-1.148438 1.105469-2.5 1.660156-4.058594 1.660156-1.59375 0-2.96875-.554687-4.113282-1.660156zm0 0"
       id="path3825"
       style="fill:#e1e9e6;fill-opacity:1" />
    <path
       d="m385.011719 291.445312c0 .246094-.023438.46875-.0625.675782v.121094c-.371094 1.84375-1.375 3.175781-3.011719 3.996093-1.433594.734375-2.886719.859375-4.363281.367188-1.515625-.492188-2.640625-1.433594-3.378907-2.828125l-28.570312-57.261719v54.621094c0 1.597656-.554688 2.949219-1.65625 4.054687-1.148438 1.148438-2.5 1.722656-4.058594 1.722656-1.597656 0-2.96875-.574218-4.113281-1.722656-1.109375-1.105468-1.660156-2.457031-1.660156-4.054687v-79.015625c0-1.597656.550781-2.949219 1.660156-4.054688 1.144531-1.148437 2.515625-1.722656 4.113281-1.722656 1.804688 0 3.296875.738281 4.484375 2.210938v.0625c.164063.164062.308594.390624.433594.675781.039063 0 .078125.023437.121094.0625 0 .082031.019531.125.0625.125l28.570312 57.261719v-54.621094c0-1.597656.554688-2.949219 1.660157-4.054688 1.105468-1.144531 2.457031-1.722656 4.054687-1.722656s2.949219.574219 4.054687 1.722656c1.144532 1.105469 1.722657 2.457032 1.722657 4.054688v79.015625c0-.121094 0-.183594 0-.183594s-.023438.164063-.0625.492187zm0 0"
       id="path3827"
       style="fill:#e1e9e6;fill-opacity:1" />
    <path
       d="m434.65625 285.421875c1.597656 0 2.949219.554687 4.054688 1.660156 1.148437 1.148438 1.722656 2.5 1.722656 4.054688 0 1.597656-.574219 2.972656-1.722656 4.117187-1.105469 1.105469-2.457032 1.660156-4.054688 1.660156h-30.292969c-1.597656 0-2.96875-.554687-4.113281-1.660156-1.105469-1.144531-1.660156-2.519531-1.660156-4.117187v-76.863281c0-1.558594.554687-2.910157 1.660156-4.054688 1.144531-1.109375 2.519531-1.660156 4.113281-1.660156h30.292969c1.597656 0 2.949219.550781 4.054688 1.660156 1.148437 1.144531 1.722656 2.496094 1.722656 4.054688 0 1.597656-.574219 2.949218-1.722656 4.054687-1.105469 1.148437-2.457032 1.722656-4.054688 1.722656h-24.578125v23.839844h20.894531c1.59375 0 2.96875.550781 4.113282 1.65625 1.105468 1.105469 1.660156 2.457031 1.660156 4.054687 0 1.597657-.554688 2.949219-1.660156 4.058594-1.144532 1.144532-2.519532 1.71875-4.113282 1.71875h-20.894531v30.046875h24.578125zm0 0"
       id="path3829"
       style="fill:#e1e9e6;fill-opacity:1" />
  </g>
</svg>
